#!OML:ASF F:\VICON\USERDATA\INSTALL\rory3\rory3.ASF
:FULLY-SPECIFIED
:DEGREES
1805
root 0.451058 17.6341 3.41806 174.505 -137.578 -179.322
lowerback 6.49336 0.217046 -4.271
upperback -4.48131 -0.1379 0.309388
thorax -8.38072 0.183881 2.74745
lowerneck -14.8409 -6.00676 -17.8382
upperneck -14.1226 -4.79861 17.2861
head -0.800854 -1.84606 8.23125
rclavicle 2.48481e-014 1.36167e-014
rhumerus 80.1277 -30.4952 -20.9293
rradius 33.1889
rwrist 4.01115
rhand -35.0136 -7.0603
rfingers 7.12502
rthumb -8.15791 -36.8828
lclavicle 2.48481e-014 1.36167e-014
lhumerus 87.7486 32.7349 33.966
lradius 27.2189
lwrist 3.47759
lhand -10.7382 27.6056
lfingers 7.12502
lthumb 15.2727 57.0218
rfemur -7.07302 1.03035 16.2461
rtibia 46.3136
rfoot -13.8842 1.57489
rtoes -10.4496
lfemur -0.675672 -0.474098 -14.2344
ltibia 40.8359
lfoot -9.49713 0.501221
ltoes -32.9946
1806
root 0.411774 17.8806 3.44361 174.48 -136.766 -179.274
lowerback 6.24685 0.31651 -4.37319
upperback -4.5455 -0.0130986 0.2145
thorax -8.31679 0.246385 2.68664
lowerneck -14.8682 -6.18458 -17.6802
upperneck -14.2587 -5.04789 17.3686
head -0.791983 -1.97934 8.21598
rclavicle -1.06598e-014 -1.98785e-015
rhumerus 80.0149 -30.4075 -20.8582
rradius 32.8007
rwrist 4.92425
rhand -34.8982 -7.11694
rfingers 7.12502
rthumb -8.04656 -36.9438
lclavicle -1.06598e-014 -1.98785e-015
lhumerus 88.7119 32.3216 35.4809
lradius 26.6413
lwrist 2.8286
lhand -9.23129 27.7505
lfingers 7.12502
lthumb 16.7238 57.0502
rfemur -6.6086 0.841678 15.9067
rtibia 44.5997
rfoot -9.6293 1.60049
rtoes -5.91574
lfemur -0.168605 -0.498707 -14.1401
ltibia 39.3938
lfoot -4.861 -0.0708054
ltoes -33.7434
1807
root 0.37348 18.1177 3.46545 174.291 -136.073 -179.059
lowerback 6.12455 0.426966 -4.59081
upperback -4.63295 0.106996 0.1005
thorax -8.35215 0.315271 2.67199
lowerneck -15.9398 -6.30005 -18.1464
upperneck -12.8327 -5.0314 18.146
head -0.159074 -1.90654 8.50552
rclavicle -3.78685e-014 -1.2921e-014
rhumerus 79.945 -30.311 -20.8549
rradius 32.3737
rwrist 5.48898
rhand -35.1405 -7.47842
rfingers 7.12502
rthumb -8.28037 -37.2961
lclavicle -3.78685e-014 -1.2921e-014
lhumerus 89.3466 32.1055 36.4234
lradius 26.2003
lwrist 3.31486
lhand -7.98363 27.8459
lfingers 7.12502
lthumb 17.9246 57.0398
rfemur -6.18402 0.626593 15.4404
rtibia 42.8873
rfoot -5.14007 0.692723
rtoes -0.793627
lfemur 0.0930062 -0.724032 -14.1612
ltibia 37.9971
lfoot 0.237916 -0.297792
ltoes -34.0287
1808
root 0.337123 18.3466 3.49161 174.304 -135.408 -179.074
lowerback 5.97476 0.535258 -4.60615
upperback -4.69654 0.247913 0.00119297
thorax -8.3446 0.381791 2.55666
lowerneck -16.0691 -6.35609 -18.0337
upperneck -12.6548 -5.11967 18.1307
head -0.0757824 -1.94943 8.46679
rclavicle -9.44227e-015 5.96354e-015
rhumerus 79.8899 -30.3226 -20.9662
rradius 32.0058
rwrist 5.97325
rhand -35.0931 -7.72844
rfingers 7.12502
rthumb -8.23459 -37.548
lclavicle -9.44227e-015 5.96354e-015
lhumerus 90.2187 31.8373 37.5075
lradius 25.6389
lwrist 3.94184
lhand -6.91602 28.2348
lfingers 7.12502
lthumb 18.9516 57.3315
rfemur -5.88057 0.498483 15.186
rtibia 41.1993
rfoot -0.687111 -1.3191
rtoes 4.18964
lfemur 0.123638 -1.52938 -14.0899
ltibia 36.6774
lfoot 5.68068 0.280943
ltoes -32.5028
1809
root 0.300623 18.5766 3.51964 174.72 -134.804 -179.662
lowerback 5.93316 0.594607 -4.19855
upperback -4.77753 0.364769 -0.018943
thorax -8.41042 0.416424 2.2908
lowerneck -16.1674 -6.45426 -18.1574
upperneck -12.4703 -5.22383 18.4185
head 0.0329936 -1.99203 8.5707
rclavicle 7.89672e-014 1.33186e-014
rhumerus 79.8911 -30.4115 -21.1333
rradius 31.613
rwrist 6.2923
rhand -34.7712 -7.6339
rfingers 7.12502
rthumb -7.92398 -37.4654
lclavicle 7.89672e-014 1.33186e-014
lhumerus 91.1026 31.3472 39.1397
lradius 25.1641
lwrist 3.78897
lhand -6.28572 28.3501
lfingers 7.12502
lthumb 19.5577 57.3864
rfemur -5.60315 0.618621 15.4139
rtibia 39.5637
rfoot 3.00381 -4.78316
rtoes 12.4853
lfemur 0.0677232 -2.7865 -13.6325
ltibia 35.5204
lfoot 10.784 1.61204
ltoes -29.083
1810
root 0.265162 18.8068 3.5426 175.045 -134.263 -179.852
lowerback 5.81747 0.675573 -4.04656
upperback -4.99795 0.480349 -0.0821848
thorax -8.58733 0.466836 2.12279
lowerneck -16.3288 -6.41268 -17.6296
upperneck -11.9496 -5.27853 17.9489
head 0.17641 -2.02984 8.30017
rclavicle 2.44008e-014 1.59028e-015
rhumerus 79.9327 -30.4292 -21.3133
rradius 31.1185
rwrist 6.60589
rhand -34.8032 -7.59914
rfingers 7.12502
rthumb -7.95482 -37.4295
lclavicle 2.44008e-014 1.59028e-015
lhumerus 91.6256 31.2407 39.5758
lradius 24.6332
lwrist 4.86273
lhand -6.19754 28.5801
lfingers 7.12502
lthumb 19.6424 57.6078
rfemur -5.59731 0.722444 15.3162
rtibia 38.0751
rfoot 5.53167 -9.17338
rtoes 20.5465
lfemur -0.228624 -4.10326 -13.5254
ltibia 34.6406
lfoot 14.6545 2.86505
ltoes -24.7876
1811
root 0.234788 19.0324 3.56184 175.339 -133.831 -179.738
lowerback 5.59752 0.688889 -4.07208
upperback -5.27967 0.494726 -0.084728
thorax -8.76676 0.48093 2.13252
lowerneck -15.8632 -6.64887 -17.5288
upperneck -12.1726 -5.68531 17.2287
head 0.0612674 -2.25543 8.01739
rclavicle 5.17834e-014 5.1684e-015
rhumerus 80.3965 -30.368 -21.6157
rradius 30.5524
rwrist 6.81397
rhand -34.9118 -7.99139
rfingers 7.12502
rthumb -8.05967 -37.8177
lclavicle 5.17834e-014 5.1684e-015
lhumerus 92.685 30.6009 42.0979
lradius 24.0976
lwrist 3.9024
lhand -6.70164 28.4573
lfingers 7.12502
lthumb 19.1578 57.5338
rfemur -5.76601 0.850985 15.0197
rtibia 36.8315
rfoot 6.39004 -13.4265
rtoes 28.0075
lfemur -0.829173 -5.17003 -13.6209
ltibia 34.0942
lfoot 17.3692 2.89356
ltoes -21.3284
1812
root 0.210363 19.2436 3.5749 175.867 -133.565 -179.877
lowerback 5.48687 0.565792 -3.98923
upperback -5.52706 0.344901 0.0625003
thorax -8.96158 0.414014 2.26186
lowerneck -15.9078 -6.70444 -17.8987
upperneck -12.0113 -5.71457 16.9609
head 0.109169 -2.25414 7.98452
rclavicle -1.26129e-013 -2.16675e-014
rhumerus 81.2551 -30.3624 -22.2058
rradius 30.0677
rwrist 6.91199
rhand -34.6946 -8.38308
rfingers 7.12502
rthumb -7.85 -38.2173
lclavicle -1.26129e-013 -2.16675e-014
lhumerus 93.5096 30.376 44.3167
lradius 23.5024
lwrist 2.61584
lhand -7.05867 28.3837
lfingers 7.12502
lthumb 18.8144 57.4938
rfemur -6.01379 1.07843 15.007
rtibia 35.9683
rfoot 4.97166 -16.7728
rtoes 34.1765
lfemur -1.65951 -5.78649 -13.3674
ltibia 33.8215
lfoot 19.2234 1.62244
ltoes -19.3835
1813
root 0.187859 19.4357 3.58786 176.374 -133.372 -179.969
lowerback 5.30586 0.43437 -3.88037
upperback -5.68434 0.189735 0.175393
thorax -9.01486 0.337803 2.34135
lowerneck -16.1288 -6.66306 -18.3539
upperneck -11.8264 -5.56931 16.8262
head 0.170568 -2.15736 8.02274
rclavicle 3.73218e-014 2.16675e-014
rhumerus 82.7056 -30.4225 -23.5232
rradius 29.3281
rwrist 7.43569
rhand -34.28 -8.70292
rfingers 7.12502
rthumb -7.44982 -38.5517
lclavicle 3.73218e-014 2.16675e-014
lhumerus 94.3753 30.6292 45.5229
lradius 22.6699
lwrist 2.31353
lhand -7.46159 28.6018
lfingers 7.12502
lthumb 18.4268 57.749
rfemur -6.34089 1.1599 14.965
rtibia 35.4895
rfoot 1.88051 -18.673
rtoes 35.5821
lfemur -2.57082 -5.93832 -13.0618
ltibia 33.7586
lfoot 19.8538 0.271373
ltoes -18.0773
1814
root 0.166318 19.6134 3.60211 176.789 -133.158 -179.942
lowerback 5.03585 0.356289 -3.74309
upperback -5.77154 0.105485 0.177971
thorax -8.94262 0.286634 2.27791
lowerneck -16.3822 -6.71406 -18.6505
upperneck -11.7405 -5.55987 16.6562
head 0.224303 -2.1336 8.01198
rclavicle 7.90169e-015 -5.76476e-015
rhumerus 84.1184 -30.5508 -25.1696
rradius 28.812
rwrist 8.09769
rhand -33.9396 -9.76833
rfingers 7.12502
rthumb -7.12124 -39.6285
lclavicle 7.90169e-015 -5.76476e-015
lhumerus 95.5258 30.631 47.2136
lradius 21.9006
lwrist 1.48903
lhand -8.32057 28.5588
lfingers 7.12502
lthumb 17.6004 57.7821
rfemur -6.70646 1.0381 14.8288
rtibia 35.3055
rfoot -1.68963 -19.5622
rtoes 32.1029
lfemur -3.43174 -5.90883 -12.8681
ltibia 33.8706
lfoot 19.1452 -0.118091
ltoes -17.6042
